<?xml version="1.0" encoding="UTF-8" standalone="no"?>
<svg
   xmlns:dc="http://purl.org/dc/elements/1.1/"
   xmlns:cc="http://creativecommons.org/ns#"
   xmlns:rdf="http://www.w3.org/1999/02/22-rdf-syntax-ns#"
   xmlns:svg="http://www.w3.org/2000/svg"
   xmlns="http://www.w3.org/2000/svg"
   xmlns:sodipodi="http://sodipodi.sourceforge.net/DTD/sodipodi-0.dtd"
   xmlns:inkscape="http://www.inkscape.org/namespaces/inkscape"
   version="1.0"
   width="1000"
   height="423.6171"
   overflow="scroll"
   id="svg896"
   sodipodi:docname="LaTeX logo.svg"
   inkscape:version="0.92.4 (5da689c313, 2019-01-14)"
   style="overflow:scroll">
  <metadata
     id="metadata902">
    <rdf:RDF>
      <cc:Work
         rdf:about="">
        <dc:format>image/svg+xml</dc:format>
        <dc:type
           rdf:resource="http://purl.org/dc/dcmitype/StillImage" />
        <dc:title>LaTeX logo</dc:title>
      </cc:Work>
    </rdf:RDF>
  </metadata>
  <defs
     id="defs900" />
  <sodipodi:namedview
     pagecolor="#ffffff"
     bordercolor="#666666"
     borderopacity="1"
     objecttolerance="10"
     gridtolerance="10"
     guidetolerance="10"
     inkscape:pageopacity="0"
     inkscape:pageshadow="2"
     inkscape:window-width="3840"
     inkscape:window-height="2160"
     id="namedview898"
     showgrid="false"
     inkscape:zoom="0.70710678"
     inkscape:cx="1461.3104"
     inkscape:cy="-132.34104"
     inkscape:window-x="0"
     inkscape:window-y="0"
     inkscape:window-maximized="1"
     inkscape:current-layer="g894"
     inkscape:snap-bbox="true"
     inkscape:bbox-paths="true"
     inkscape:bbox-nodes="true"
     inkscape:snap-bbox-edge-midpoints="true"
     inkscape:snap-bbox-midpoints="true"
     inkscape:object-paths="true"
     inkscape:snap-intersection-paths="true"
     inkscape:snap-smooth-nodes="true"
     inkscape:snap-midpoints="true"
     inkscape:snap-object-midpoints="true"
     inkscape:snap-center="true"
     fit-margin-top="0"
     fit-margin-left="0"
     fit-margin-right="0"
     fit-margin-bottom="0" />
  <title
     id="title882">LaTeX logo</title>
  <g
     transform="matrix(45,0,0,45,39.999999,-36.382902)"
     id="g894"
     style="fill:#000000">
    <g
       id="g4597"
       transform="matrix(1.0401893,0,0,1.0401893,-1.4121742,-0.41082409)">
      <g
         transform="translate(0,0.50824672)"
         id="g2238">
        <path
           style="fill:#484848;fill-opacity:1"
           inkscape:connector-curvature="0"
           d="m 6.7730674,0.72397551 c 0,0 -6.09,0 -6.09,0 0,0 -0.18,2.23999999 -0.18,2.23999999 0,0 0.24,0 0.24,0 0.14,-1.61 0.29,-1.94 1.8,-1.94 0.18,0 0.44,0 0.54,0.02 0.21,0.04 0.21,0.15 0.21,0.38 0,0 0,5.25 0,5.25 0,0.34 0,0.48 -1.05,0.48 0,0 -0.4,0 -0.4,0 0,0 0,0.31 0,0.31 0.41,-0.03 1.42,-0.03 1.88,-0.03 0.46,0 1.49,0 1.9,0.03 0,0 0,-0.31 0,-0.31 0,0 -0.4,0 -0.4,0 -1.05,0 -1.05,-0.14 -1.05,-0.48 0,0 0,-5.25 0,-5.25 0,-0.2 0,-0.34 0.18,-0.38 0.11,-0.02 0.38,-0.02 0.57,-0.02 1.5,0 1.65,0.33 1.79,1.94 0,0 0.25,0 0.25,0 0,0 -0.19,-2.23999999 -0.19,-2.23999999 z"
           id="path888" />
        <path
           style="fill:#484848;fill-opacity:1"
           inkscape:connector-curvature="0"
           d="m 12.133067,7.1439755 c 0,0 -0.25,0 -0.25,0 -0.25,1.53 -0.48,2.26 -2.1899996,2.26 0,0 -1.32,0 -1.32,0 -0.47,0 -0.49,-0.07 -0.49,-0.4 0,0 0,-2.66 0,-2.66 0,0 0.89,0 0.89,0 0.97,0 1.08,0.32 1.08,1.17 0,0 0.2499996,0 0.2499996,0 0,0 0,-2.64 0,-2.64 0,0 -0.2499996,0 -0.2499996,0 0,0.85 -0.11,1.16 -1.08,1.16 0,0 -0.89,0 -0.89,0 0,0 0,-2.39 0,-2.39 0,-0.33 0.02,-0.4 0.49,-0.4 0,0 1.28,0 1.28,0 1.5299996,0 1.7899996,0.55 1.9499996,1.94 0,0 0.25,0 0.25,0 0,0 -0.28,-2.24 -0.28,-2.24 0,0 -5.5999996,0 -5.5999996,0 0,0 0,0.3 0,0.3 0,0 0.23,0 0.23,0 0.77,0 0.79,0.11 0.79,0.47 0,0 0,5.22 0,5.22 0,0.36 -0.02,0.47 -0.79,0.47 0,0 -0.23,0 -0.23,0 0,0 0,0.31 0,0.31 0,0 5.7399996,0 5.7399996,0 0,0 0.42,-2.57 0.42,-2.57 z"
           id="path890" />
        <path
           sodipodi:nodetypes="ccccccsccssccsccscccccccsccccc"
           style="fill:#484848;fill-opacity:1"
           inkscape:connector-curvature="0"
           d="m 15.143067,3.6139755 1.37,-2 c 0.21,-0.32 0.55,-0.63999999 1.44,-0.64999999 v -0.3 h -2.38 v 0.3 c 0.4,0.01 0.62,0.22999999 0.62,0.45999999 0,0.1 -0.02,0.12 -0.09,0.23 l -1.14,1.68 -1.28,-1.92 c -0.02,-0.03 -0.07,-0.11 -0.07,-0.15 0,-0.12 0.22,-0.28999999 0.64,-0.29999999 v -0.3 c -0.34,0.03 -1.07,0.03 -1.45,0.03 -0.31,0 -0.93,-0.01 -1.3,-0.03 v 0.3 h 0.19 c 0.55,0 0.74,0.07 0.93,0.34999999 l 1.83,2.77 -1.63,2.41 c -0.14,0.2 -0.44,0.66 -1.44,0.66 v 0.31 h 2.38 v -0.31 c -0.46,-0.01 -0.63,-0.28 -0.63,-0.46 0,-0.09 0.03,-0.13 0.1,-0.24 l 1.41,-2.09 c 1.076272,1.6259617 3.228812,4.8778879 3.228812,4.8778879 l 0.795948,-0.2903879 z"
           id="path892" />
      </g>
      <g
         id="Icon-5"
         style="clip-rule:evenodd;fill-rule:evenodd;stroke-linejoin:round;stroke-miterlimit:2"
         transform="matrix(0.05580301,0,0,0.05580301,-8.9819882,0.11691598)">
        <path
           d="m 549.614,31.315 c 2.301,0.616 3.669,2.985 3.052,5.286 -0.617,2.302 -2.986,3.669 -5.287,3.053 l -4.021,-1.078 c -0.732,5.914 -4.576,38.426 -2.976,56.899 -17.066,14.74 -46.559,59.073 -46.559,59.073 l 15.499,-57.843 c 3.026,-0.193 6.349,-2.117 7.177,-5.206 1.038,-3.874 -1.264,-7.862 -5.138,-8.9 -3.874,-1.038 -7.862,1.264 -8.9,5.138 -0.827,3.09 1.089,6.418 3.613,8.098 l -15.499,57.843 c 0,0 -4.103,-50.801 -10.785,-74.438 10.859,-14.069 23.629,-45.157 25.888,-50.76 l -4.037,-1.082 c -2.301,-0.616 -3.669,-2.985 -3.052,-5.287 0.616,-2.301 2.985,-3.668 5.286,-3.052 z"
           style="fill:#484848"
           id="path1590-3"
           inkscape:connector-curvature="0" />
        <path
           d="m 484.914,157.459 c 6.407,-1.717 13.003,2.091 14.72,8.498 1.716,6.407 -2.092,13.003 -8.499,14.72 -6.407,1.717 -13.003,-2.091 -14.719,-8.498 -1.717,-6.408 2.091,-13.003 8.498,-14.72 z"
           style="fill:#484848"
           id="path1592-5"
           inkscape:connector-curvature="0" />
      </g>
    </g>
  </g>
</svg>
